HIERARCHY
ROOT joint_0
{
	OFFSET 0.000000 0.000000 0.000000
	CHANNELS 6 Xposition Yposition Zposition Zrotation Yrotation Xrotation 
	JOINT joint_1
	{
		OFFSET 0.587158 0.057678 95.682007
		CHANNELS 3 Zrotation Yrotation Xrotation
		JOINT joint_2
		{
			OFFSET -7.116699 -0.219910 87.157959
			CHANNELS 3 Zrotation Yrotation Xrotation
			JOINT joint_3
			{
				OFFSET -5.892822 -0.290222 87.151001
				CHANNELS 3 Zrotation Yrotation Xrotation
				JOINT joint_4
				{
					OFFSET 5.544678 -0.099609 123.768066
					CHANNELS 3 Zrotation Yrotation Xrotation
					JOINT joint_5
					{
						OFFSET 41.981201 4.519775 84.257935
						CHANNELS 3 Zrotation Yrotation Xrotation
						End Site
						{
							OFFSET 0.000000 0.000000 0.000000
						}
					}
				}
				JOINT joint_6
				{
					OFFSET 3.940918 -26.976501 69.308105
					CHANNELS 3 Zrotation Yrotation Xrotation
					JOINT joint_7
					{
						OFFSET 4.776123 -152.592468 -16.842041
						CHANNELS 3 Zrotation Yrotation Xrotation
						JOINT joint_8
						{
							OFFSET 54.421875 -30.424072 -248.864014
							CHANNELS 3 Zrotation Yrotation Xrotation
							JOINT joint_9
							{
								OFFSET 42.120117 -33.387878 -236.524963
								CHANNELS 3 Zrotation Yrotation Xrotation
								End Site
								{
									OFFSET 0.000000 0.000000 0.000000
								}
							}
						}
					}
				}
				JOINT joint_10
				{
					OFFSET 2.312012 26.904114 69.425049
					CHANNELS 3 Zrotation Yrotation Xrotation
					JOINT joint_11
					{
						OFFSET 0.971436 152.197815 -20.626953
						CHANNELS 3 Zrotation Yrotation Xrotation
						JOINT joint_12
						{
							OFFSET 49.954102 28.991455 -249.970093
							CHANNELS 3 Zrotation Yrotation Xrotation
							JOINT joint_13
							{
								OFFSET 48.146973 19.598389 -236.919922
								CHANNELS 3 Zrotation Yrotation Xrotation
								End Site
								{
									OFFSET 0.000000 0.000000 0.000000
								}
							}
						}
					}
				}
			}
		}
	}
	JOINT joint_14
	{
		OFFSET 16.305664 -89.442932 -108.224976
		CHANNELS 3 Zrotation Yrotation Xrotation
		JOINT joint_15
		{
			OFFSET -22.282471 13.437134 -412.904968
			CHANNELS 3 Zrotation Yrotation Xrotation
			JOINT joint_16
			{
				OFFSET -45.426025 14.484802 -445.892029
				CHANNELS 3 Zrotation Yrotation Xrotation
				JOINT joint_17
				{
					OFFSET 173.389404 -9.944031 -76.473001
					CHANNELS 3 Zrotation Yrotation Xrotation
					End Site
					{
						OFFSET 0.000000 0.000000 0.000000
					}
				}
			}
		}
	}
	JOINT joint_18
	{
		OFFSET 13.392822 89.408875 -108.653992
		CHANNELS 3 Zrotation Yrotation Xrotation
		JOINT joint_19
		{
			OFFSET -29.032959 24.483521 -411.977966
			CHANNELS 3 Zrotation Yrotation Xrotation
			JOINT joint_20
			{
				OFFSET -30.530029 28.986328 -446.453018
				CHANNELS 3 Zrotation Yrotation Xrotation
				JOINT joint_21
				{
					OFFSET 170.330078 33.400757 -76.698997
					CHANNELS 3 Zrotation Yrotation Xrotation
					End Site
					{
						OFFSET 0.000000 0.000000 0.000000
					}
				}
			}
		}
	}
}
MOTION
Frames: 15
Frame Time: 0.016667
-2262.374023 895.329834 1057.609985 2.303819 -2.456565 0.477842 -0.153676 0.454539 -0.268183 -0.132684 -0.121419 0.066235 -0.139793 0.123429 -0.041137 -0.219369 -0.681059 0.511848 0.000000 0.000000 0.000000 -1.841310 2.321689 0.470513 0.476546 2.139449 2.768662 -0.160351 -1.744599 -2.293968 0.000000 0.000000 0.000000 0.848471 2.360847 0.138079 0.382770 2.293267 0.571395 0.009076 -0.345457 0.187257 0.000000 0.000000 0.000000 -0.833622 1.392951 -3.584614 -0.924169 5.311454 0.248725 -1.118901 -3.892833 -0.714643 0.000000 0.000000 0.000000 0.145018 2.105981 1.120104 0.033519 -0.154513 0.748257 0.163360 0.934551 -0.109755 0.000000 0.000000 0.000000 
-2262.356445 895.264893 1057.621948 2.289628 -2.453232 0.468461 -0.152874 0.460786 -0.256746 -0.133239 -0.120501 0.061000 -0.139755 0.123890 -0.037866 -0.220669 -0.682368 0.514600 0.000000 0.000000 0.000000 -1.844095 2.320762 0.477738 0.473629 2.137768 2.751359 -0.165366 -1.733312 -2.313403 0.000000 0.000000 0.000000 0.842904 2.358829 0.134412 0.383466 2.292069 0.573759 0.006845 -0.356739 0.180915 0.000000 0.000000 0.000000 -0.834988 1.396325 -3.575027 -0.925766 5.297919 0.251739 -1.119879 -3.891731 -0.715009 0.000000 0.000000 0.000000 0.147057 2.099880 1.139262 0.038509 -0.144230 0.741160 0.167322 0.937738 -0.108601 0.000000 0.000000 0.000000 
-2262.343506 895.209229 1057.635010 2.272309 -2.448723 0.459632 -0.151078 0.466497 -0.247028 -0.132535 -0.120895 0.057368 -0.138594 0.124608 -0.034935 -0.221756 -0.682009 0.516747 0.000000 0.000000 0.000000 -1.846525 2.320578 0.482852 0.470921 2.136986 2.736347 -0.168420 -1.727160 -2.325890 0.000000 0.000000 0.000000 0.837799 2.355904 0.129518 0.384579 2.289932 0.578528 0.004205 -0.369272 0.173075 0.000000 0.000000 0.000000 -0.835789 1.396554 -3.567424 -0.926789 5.286628 0.255789 -1.120313 -3.891533 -0.715188 0.000000 0.000000 0.000000 0.149340 2.094117 1.153637 0.042739 -0.136562 0.740610 0.171325 0.943180 -0.107870 0.000000 0.000000 0.000000 
-2262.327637 895.170471 1057.650024 2.250266 -2.439954 0.451704 -0.147231 0.466256 -0.238852 -0.129513 -0.121451 0.054806 -0.135253 0.124966 -0.032928 -0.222462 -0.676876 0.517622 0.000000 0.000000 0.000000 -1.848452 2.323354 0.484782 0.468098 2.139414 2.723934 -0.168122 -1.730336 -2.326903 0.000000 0.000000 0.000000 0.832287 2.352933 0.122800 0.386488 2.287875 0.586968 0.001115 -0.383483 0.163715 0.000000 0.000000 0.000000 -0.835515 1.390213 -3.563246 -0.926732 5.278098 0.262101 -1.119586 -3.891079 -0.714844 0.000000 0.000000 0.000000 0.151791 2.088852 1.159279 0.045164 -0.136680 0.751622 0.175016 0.950932 -0.107733 0.000000 0.000000 0.000000 
-2262.316406 895.140930 1057.666016 2.226186 -2.430045 0.444087 -0.142671 0.464109 -0.231946 -0.125527 -0.121486 0.053879 -0.131170 0.125961 -0.032534 -0.223706 -0.670603 0.519452 0.000000 0.000000 0.000000 -1.849101 2.326731 0.485723 0.465410 2.142662 2.713424 -0.165724 -1.739416 -2.320779 0.000000 0.000000 0.000000 0.826818 2.348662 0.116293 0.388635 2.284534 0.597063 -0.002287 -0.399136 0.153417 0.000000 0.000000 0.000000 -0.834824 1.381181 -3.560788 -0.926266 5.271292 0.269450 -1.118436 -3.891042 -0.714339 0.000000 0.000000 0.000000 0.154239 2.083635 1.160313 0.046624 -0.139141 0.769254 0.178498 0.960445 -0.108034 0.000000 0.000000 0.000000 
-2262.323486 895.123474 1057.685059 2.202943 -2.423680 0.434812 -0.140382 0.469481 -0.220152 -0.124190 -0.123945 0.053991 -0.129895 0.127946 -0.033428 -0.221815 -0.663702 0.514948 0.000000 0.000000 0.000000 -1.844974 2.327911 0.484632 0.462928 2.144299 2.703440 -0.162067 -1.751766 -2.310203 0.000000 0.000000 0.000000 0.827100 2.343161 0.105731 0.390814 2.279155 0.608584 -0.005492 -0.413872 0.143708 0.000000 0.000000 0.000000 -0.834973 1.376145 -3.557003 -0.926742 5.261326 0.275399 -1.118021 -3.882561 -0.713670 0.000000 0.000000 0.000000 0.159071 2.076432 1.160848 0.050729 -0.134104 0.790753 0.184634 0.973757 -0.107889 0.000000 0.000000 0.000000 
-2262.365967 895.105774 1057.697021 2.180595 -2.426328 0.425773 -0.145393 0.482537 -0.198394 -0.130793 -0.126836 0.056682 -0.136843 0.129761 -0.035817 -0.211378 -0.657513 0.493418 0.000000 0.000000 0.000000 -1.884793 2.291670 0.488517 0.473986 2.103161 2.729393 -0.176122 -1.689124 -2.340471 0.000000 0.000000 0.000000 0.839976 2.339186 0.086743 0.393261 2.273574 0.621549 -0.008633 -0.427117 0.133684 0.000000 0.000000 0.000000 -0.837736 1.380355 -3.553833 -0.930264 5.247322 0.279903 -1.120289 -3.862847 -0.713530 0.000000 0.000000 0.000000 0.168180 2.070745 1.160600 0.059328 -0.119733 0.814944 0.195242 0.993716 -0.107038 0.000000 0.000000 0.000000 
-2262.426758 895.099121 1057.712036 2.159441 -2.432387 0.415118 -0.152616 0.501755 -0.171128 -0.140166 -0.130883 0.058553 -0.146528 0.134316 -0.038685 -0.198556 -0.652874 0.467282 0.000000 0.000000 0.000000 -1.919404 2.252640 0.490903 0.485291 2.059847 2.755764 -0.188844 -1.630187 -2.366199 0.000000 0.000000 0.000000 0.858325 2.333088 0.064726 0.395468 2.265076 0.635019 -0.011539 -0.439716 0.124551 0.000000 0.000000 0.000000 -0.841250 1.388540 -3.549104 -0.934602 5.229968 0.282490 -1.123206 -3.834641 -0.713186 0.000000 0.000000 0.000000 0.179745 2.062884 1.159801 0.070645 -0.097898 0.843091 0.208596 1.017610 -0.105726 0.000000 0.000000 0.000000 
-2262.466797 895.135742 1057.754028 2.143760 -2.431272 0.395002 -0.149302 0.537123 -0.151990 -0.138754 -0.149908 0.058215 -0.145056 0.154872 -0.039068 -0.195846 -0.650354 0.461631 0.000000 0.000000 0.000000 -1.803101 2.311517 0.464822 0.458117 2.132950 2.679106 -0.144355 -1.806359 -2.254672 0.000000 0.000000 0.000000 0.862493 2.313376 0.052314 0.395425 2.244667 0.644721 -0.013790 -0.450952 0.118113 0.000000 0.000000 0.000000 -0.840964 1.393383 -3.533466 -0.934375 5.206303 0.281053 -1.121686 -3.800269 -0.710544 0.000000 0.000000 0.000000 0.189372 2.042423 1.165614 0.081763 -0.065766 0.873354 0.220652 1.033462 -0.103421 0.000000 0.000000 0.000000 
-2262.589111 895.224915 1057.819946 2.136025 -2.431858 0.361771 -0.146160 0.576775 -0.151819 -0.136523 -0.203705 0.053547 -0.142190 0.212817 -0.037078 -0.202750 -0.621049 0.472396 0.000000 0.000000 0.000000 -1.498948 2.506963 0.350462 0.371374 2.367576 2.445511 0.006408 -2.371248 -1.850981 0.000000 0.000000 0.000000 0.883692 2.217379 0.089878 0.374479 2.143499 0.619206 0.000256 -0.292470 0.121727 0.000000 0.000000 0.000000 -0.833335 1.399620 -3.500331 -0.925575 5.174648 0.270385 -1.112258 -3.759422 -0.704065 0.000000 0.000000 0.000000 0.194822 2.006843 1.182172 0.091665 -0.012486 0.903926 0.229447 1.038854 -0.100532 0.000000 0.000000 0.000000 
-2262.691650 895.358093 1057.913940 2.134000 -2.425386 0.319194 -0.132301 0.633739 -0.158869 -0.123409 -0.274173 0.046616 -0.128084 0.288134 -0.032938 -0.218887 -0.594837 0.501936 0.000000 0.000000 0.000000 -1.043533 2.804136 0.219549 0.244895 2.722227 2.103392 0.212458 -3.182805 -1.325746 0.000000 0.000000 0.000000 0.889788 2.107526 0.136046 0.351298 2.030290 0.590587 0.014798 -0.133136 0.127642 0.000000 0.000000 0.000000 -0.821925 1.402620 -3.456553 -0.912253 5.136674 0.255755 -1.098424 -3.712130 -0.695287 0.000000 0.000000 0.000000 0.198546 1.958409 1.204981 0.101578 0.051586 0.936931 0.237170 1.036537 -0.096613 0.000000 0.000000 0.000000 
-2262.424561 895.536194 1058.067017 2.132185 -2.375375 0.270271 -0.063546 0.755289 -0.146636 -0.057879 -0.316660 0.034301 -0.061104 0.330123 -0.025936 -0.258418 -0.657443 0.587632 0.000000 0.000000 0.000000 -0.386253 3.194669 0.241932 0.102520 3.188519 1.713946 0.378547 -4.026102 -1.034059 0.000000 0.000000 0.000000 0.773363 2.161027 0.089898 0.379895 2.102549 0.648192 -0.017638 -0.476630 0.110198 0.000000 0.000000 0.000000 -0.812113 1.381630 -3.410271 -0.900013 5.094484 0.246488 -1.084874 -3.659451 -0.686321 0.000000 0.000000 0.000000 0.203108 1.895895 1.228771 0.111653 0.096204 0.977067 0.245935 1.023570 -0.090138 0.000000 0.000000 0.000000 
-2261.642334 895.787781 1058.343994 2.125433 -2.278886 0.216806 0.118645 0.975167 -0.121370 0.119419 -0.296270 0.022912 0.117068 0.292085 -0.022025 -0.359258 -0.818549 0.805678 0.000000 0.000000 0.000000 0.745782 3.848256 0.572770 -0.092730 3.964037 1.200851 0.506237 -5.117987 -1.106911 0.000000 0.000000 0.000000 0.430805 2.579701 -0.104504 0.508870 2.581170 0.858743 -0.163867 -1.923932 0.004102 0.000000 0.000000 0.000000 -0.802094 1.332748 -3.368354 -0.887167 5.066497 0.248885 -1.070406 -3.619543 -0.677682 0.000000 0.000000 0.000000 0.207815 1.832285 1.242292 0.117757 0.113322 1.043148 0.252804 0.990825 -0.080638 0.000000 0.000000 0.000000 
-2260.491211 896.084045 1058.681030 2.118823 -2.138660 0.157441 0.354476 1.259932 -0.074938 0.349144 -0.249395 0.020737 0.346117 0.221984 -0.029218 -0.473467 -1.075561 1.058549 0.000000 0.000000 0.000000 2.121219 4.588830 1.083554 -0.307309 4.851903 0.667537 0.578658 -6.215998 -1.433592 0.000000 0.000000 0.000000 -0.050831 3.163630 -0.452443 0.686294 3.246737 1.244190 -0.370031 -3.875892 -0.141740 0.000000 0.000000 0.000000 -0.793878 1.259632 -3.324515 -0.875650 5.034166 0.256759 -1.056430 -3.573793 -0.668920 0.000000 0.000000 0.000000 0.213565 1.754026 1.256279 0.124264 0.111356 1.116253 0.260958 0.947966 -0.068578 0.000000 0.000000 0.000000 
-2259.054932 896.351440 1058.922974 2.122489 -1.925227 0.091252 0.514903 1.551905 0.040415 0.497054 -0.234744 0.001724 0.495556 0.209148 -0.024250 -0.497972 -1.495388 1.147353 0.000000 0.000000 0.000000 2.973905 4.891854 1.429877 -0.395466 5.244428 0.424862 0.509692 -6.414878 -1.914803 0.000000 0.000000 0.000000 -0.485338 3.483533 -0.904194 0.822518 3.635428 1.706770 -0.482427 -5.036128 -0.154886 0.000000 0.000000 0.000000 -0.798817 1.151091 -3.270603 -0.877002 4.945228 0.265039 -1.051686 -3.469769 -0.660862 0.000000 0.000000 0.000000 0.226551 1.617920 1.294982 0.144914 0.084653 1.147952 0.282854 0.921896 -0.053637 0.000000 0.000000 0.000000 
